<?xml version="1.0" standalone="no"?>
<!DOCTYPE svg PUBLIC "-//W3C//DTD SVG 20010904//EN"
 "http://www.w3.org/TR/2001/REC-SVG-20010904/DTD/svg10.dtd">
<svg version="1.0" xmlns="http://www.w3.org/2000/svg"
 width="512.000000pt" height="512.000000pt" viewBox="0 0 512.000000 512.000000"
 preserveAspectRatio="xMidYMid meet">
<metadata>
Created by potrace 1.14, written by Peter Selinger 2001-2017
</metadata>
<g transform="translate(0.000000,512.000000) scale(0.100000,-0.100000)"
fill="#000000" stroke="none">
<path d="M2467 4964 c-1 -1 -45 -5 -97 -8 -664 -44 -1316 -402 -1728 -948
-195 -259 -366 -617 -417 -878 -2 -8 -8 -33 -13 -55 -15 -56 -40 -225 -48
-320 -11 -134 -6 -407 10 -491 2 -10 7 -41 10 -67 11 -82 25 -148 57 -265 193
-725 731 -1330 1431 -1605 99 -39 215 -78 282 -94 164 -39 261 -55 411 -69
133 -12 373 -7 505 12 193 28 404 81 554 140 85 34 287 129 331 157 294 184
472 334 650 547 161 194 254 347 373 612 23 50 98 269 106 309 3 13 9 39 15
57 5 17 8 32 6 32 -3 0 -1 10 4 23 5 12 12 42 15 67 3 25 8 56 10 70 28 159
36 372 22 554 -49 652 -355 1240 -867 1671 -79 66 -243 182 -314 221 -356 196
-663 292 -1025 320 -77 6 -279 11 -283 8z"/>
</g>
</svg>
